<svg xmlns="http://www.w3.org/2000/svg" viewBox="0 0 273.39 106.25">

<g id="Layer_1-2" data-name="Layer 1">
<path class="cls-1" d="M 46.6 0 V 17.7 a 36.8 36.8 0 1 0 0 71 v 17.6 h 2.5 V 0 Z m 0 86 a 34.3 34.3 0 1 1 0 -65.8 Z"></path>
<path class="cls-1" d="M 60.4 24.9 V 10 h -2.5 V 96.3 h 2.5 V 81.4 a 36.8 36.8 0 0 0 0 -56.5 Z m 0 53.2 V 28.2 a 34.2 34.2 0 0 1 0 49.9 Z"/>
<path class="cls-1" d="M 97.9 59.9 a 8.1 8.1 0 0 1 -5.5 -2.1 l -0.1 -0.1 L 93.8 56 l 0.1 0.1 a 5.9 5.9 0 0 0 4 1.7 c 1.3 0 2.2 -0.6 2.2 -1.6 s -0.4 -1.4 -2.9 -1.9 c -2.9 -0.7 -4.4 -1.5 -4.4 -4 c 0 -2.3 1.9 -3.9 4.5 -3.9 A 7.3 7.3 0 0 1 102.2 48 l 0.1 0.1 l -1.3 1.9 l -0.1 -0.1 a 5.8 5.8 0 0 0 -3.5 -1.3 c -1.2 0 -2 0.6 -2 1.5 s 0.5 1.4 3 2 h 0 c 3 0.7 4.3 1.9 4.3 3.9 C 102.6 58.4 100.8 59.9 97.9 59.9 Z"/>
<path class="cls-1" d="M 268.6 60.1 A 8.1 8.1 0 0 1 263.1 58 l -0.1 -0.1 l 1.5 -1.8 l 0.1 0.1 a 5.9 5.9 0 0 0 4 1.7 c 1.3 0 2.2 -0.6 2.2 -1.6 s -0.4 -1.4 -2.9 -1.9 c -2.9 -0.7 -4.4 -1.5 -4.4 -4 c 0 -2.3 1.9 -3.9 4.5 -3.9 A 7.3 7.3 0 0 1 273 48.1 l 0.1 0.1 l -1.3 1.9 l -0.1 -0.1 a 5.8 5.8 0 0 0 -3.5 -1.3 c -1.2 0 -2 0.6 -2 1.5 s 0.5 1.4 3 2 h 0 c 3 0.7 4.3 1.9 4.3 3.9 C 273.4 58.5 271.5 60.1 268.6 60.1 Z"/>
<path class="cls-1" d="M 116 60.1 c -3.6 0 -5.6 -2.1 -5.6 -5.8 V 46.7 h 2.5 v 7.5 c 0 2.3 1.2 3.6 3.2 3.6 s 3.2 -1.3 3.2 -3.5 V 46.7 h 2.5 v 7.5 C 121.7 57.9 119.6 60.1 116 60.1 Z"/>
<path class="cls-1" d="M 141.5 59.9 h -2.1 l 0 0 l -7 -9 v 9.1 h -2.5 V 46.7 h 2.3 l 0 0 L 139 55.5 v -8.8 h 2.5 Z"/>
<path class="cls-1" d="M 165.3 59.9 h -2.5 V 49 h -4.1 V 46.7 h 10.8 V 49 h -4.1 Z"/>
<path class="cls-1" d="M 182.8 60.2 a 6.8 6.8 0 1 1 6.9 -6.8 A 6.7 6.7 0 0 1 182.8 60.2 Z m 0 -11.4 a 4.5 4.5 0 1 0 4.3 4.5 A 4.3 4.3 0 0 0 182.8 48.9 Z"/>
<path class="cls-1" d="M 211.1 60.1 H 209 l 0 -0.1 l -3.1 -9.1 l -3.1 9.1 h -2.1 l 0 -0.1 L 196 46.8 h 2.7 l 0 0.1 l 3 9.3 l 3.1 -9.5 H 207 l 0 0.1 l 3.1 9.4 l 3 -9.4 h 2.6 l 0 0.1 Z"/>
<path class="cls-1" d="M 233.7 60 h -9.9 V 46.8 h 9.8 V 49 h -7.4 V 52.2 h 6.5 v 2.2 h -6.5 v 3.3 h 7.5 Z"/>
<path class="cls-1" d="M 255.1 60 h -2.9 l 0 0 l -3.2 -4.5 h -2.7 V 60 h -2.5 V 46.8 h 5.9 c 3 0 4.9 1.6 4.9 4.2 a 4 4 0 0 1 -3 4 Z m -8.8 -6.8 h 3.3 c 1.6 0 2.6 -0.8 2.6 -2.1 s -0.9 -2.1 -2.6 -2.1 h -3.2 Z"/></g></svg>