<svg viewBox="0 0 92 166" xmlns="http://www.w3.org/2000/svg" xmlns:xlink="http://www.w3.org/1999/xlink">
  <g fill="none" fill-rule="evenodd">
    <g transform="translate(0 128)">
      <path d="M0 10.8l1.3-1.6c1.2 1 2.4 1.6 3.9 1.6 1.4 0 2.2-.6 2.2-1.5v-.1c0-.9-.5-1.3-2.8-1.9C2 6.7.5 5.9.5 3.6.5 1.5 2.3 0 4.7 0 6.5 0 8 .6 9.2 1.6L8.1 3.2c-1.2-.8-2.3-1.3-3.4-1.3-1.3 0-2 .7-2 1.5 0 1 .5 1.4 2.9 2 2.6.6 4 1.6 4 3.6 0 2.4-1.8 3.7-4.4 3.7-1.9 0-3.7-.6-5.2-1.9" fill="#8b634a" mask="url(#b)" />
    </g>
    <path d="M24.4 134.4c0-2.4-1.8-4.4-4.2-4.4-2.5 0-4.2 1.9-4.2 4.3v.1c0 2.4 1.7 4.4 4.2 4.4s4.2-2 4.2-4.4zm-10.7 0c0-3.5 2.7-6.4 6.5-6.4s6.5 2.9 6.5 6.3v.1c0 3.5-2.7 6.4-6.5 6.4s-6.5-2.9-6.5-6.4zM31.4 128.2h2.2v10.4h6.5v2h-8.7v-12.4M52 135.7l-2.1-5-2.2 5H52zm-3.1-7.6h2l5.5 12.5h-2.3l-1.3-3h-5.9l-1.2 3h-2.3l5.5-12.5zM66 134.3c1.5 0 2.5-.8 2.5-2v-.1c0-1.3-.9-2-2.6-2h-3.1v4.1H66zm-5.4-6.1h5.5c1.6 0 2.8.4 3.6 1.2.7.7 1 1.6 1 2.7 0 2.1-1.2 3.3-2.9 3.8l3.3 4.7h-2.6l-3-4.3h-2.7v4.3h-2.2v-12.4zM75.6 140.6h2.2v-12.4h-2.2zM82.4 138.8l1.3-1.6c1.2 1 2.4 1.6 3.9 1.6 1.4 0 2.2-.6 2.2-1.5v-.1c0-.9-.5-1.3-2.8-1.9-2.6-.6-4.1-1.4-4.1-3.7 0-2.1 1.8-3.6 4.2-3.6 1.8 0 3.3.6 4.5 1.6l-1.1 1.6c-1.1-.8-2.3-1.3-3.4-1.3-1.3 0-2 .7-2 1.5 0 1 .6 1.4 2.9 2 2.6.6 4 1.6 4 3.6 0 2.4-1.8 3.7-4.4 3.7-1.9 0-3.7-.6-5.2-1.9M18.9 159.6c0-3.5 2.6-6.4 6.4-6.4 2.2 0 3.6.8 4.8 1.9l-1.4 1.6c-1-.9-2-1.5-3.5-1.5-2.3 0-4 1.9-4 4.4 0 2.4 1.7 4.4 4 4.4 1.6 0 2.5-.6 3.6-1.6l1.4 1.4c-1.3 1.4-2.7 2.2-5 2.2-3.6 0-6.3-2.8-6.3-6.4M34.6 153.4h2.2v10.4h6.5v2h-8.7v-12.4M45.9 160.5v-7.1h2.2v7c0 2.3 1.2 3.6 3.1 3.6 1.9 0 3.1-1.2 3.1-3.5v-7.1h2.2v7c0 3.7-2.1 5.6-5.3 5.6-3.3 0-5.3-1.9-5.3-5.5M67.4 163.9c1.4 0 2.3-.6 2.3-1.7v-.1c0-1-.8-1.6-2.5-1.6h-3.5v3.4h3.7zm-.7-5.3c1.4 0 2.4-.5 2.4-1.7 0-1-.8-1.6-2.2-1.6h-3.2v3.3h3zm-5.1-5.2h5.6c1.4 0 2.5.4 3.2 1.1.6.5.8 1.2.8 2.1 0 1.5-.8 2.3-1.7 2.7 1.4.5 2.4 1.4 2.4 3.1 0 2.2-1.8 3.4-4.6 3.4h-5.7v-12.4zM44.8 109.4h2.4V16.7h-2.4zM76.1 77.1c0 12.9-8.3 24.4-20.4 28.5V33.7h20.4v43.4zM55.7 31.2v-8.5h-2.4v86.1l1.5-.4c14-3.9 23.7-16.8 23.7-31.3V31.2H55.7zM36.3 105.6C24.2 101.5 15.9 90 15.9 77.1V33.7h20.4v71.9zm0-74.4H13.5v45.9c0 14.5 9.7 27.4 23.7 31.3l1.5.4V22.7h-2.4v8.5zM51 5.5c0 2.8-2.2 5-5 5s-5-2.2-5-5S43.2.4 46 .4s5 2.3 5 5.1" fill="#8b634a" />
  </g>
</svg>